<mxfile host="Electron" modified="2024-02-06T20:11:32.884Z" agent="Mozilla/5.0 (Macintosh; Intel Mac OS X 10_15_7) AppleWebKit/537.36 (KHTML, like Gecko) draw.io/23.0.2 Chrome/120.0.6099.109 Electron/28.1.0 Safari/537.36" etag="GWuuv5tPmsvE0LVrSuCM" version="23.0.2" type="device">
  <diagram name="Page-1" id="jzTM7zj-M4VzIFEmryYX">
    <mxGraphModel dx="2116" dy="685" grid="1" gridSize="10" guides="1" tooltips="1" connect="1" arrows="1" fold="1" page="1" pageScale="1" pageWidth="850" pageHeight="1100" math="0" shadow="0">
      <root>
        <mxCell id="0" />
        <mxCell id="1" parent="0" />
        <mxCell id="kN5ktuVqzW80JllqX5qt-1" value="" style="rounded=0;whiteSpace=wrap;html=1;fillColor=none;" parent="1" vertex="1">
          <mxGeometry x="40" y="40" width="2000" height="1000" as="geometry" />
        </mxCell>
        <mxCell id="kN5ktuVqzW80JllqX5qt-2" value="0&amp;nbsp;" style="text;html=1;align=center;verticalAlign=middle;resizable=0;points=[];autosize=1;strokeColor=none;fillColor=none;" parent="1" vertex="1">
          <mxGeometry x="30" y="1040" width="30" height="30" as="geometry" />
        </mxCell>
        <mxCell id="kN5ktuVqzW80JllqX5qt-3" value="100" style="text;html=1;align=center;verticalAlign=middle;resizable=0;points=[];autosize=1;strokeColor=none;fillColor=none;" parent="1" vertex="1">
          <mxGeometry x="120" y="1040" width="40" height="30" as="geometry" />
        </mxCell>
        <mxCell id="kN5ktuVqzW80JllqX5qt-4" value="200" style="text;html=1;align=center;verticalAlign=middle;resizable=0;points=[];autosize=1;strokeColor=none;fillColor=none;" parent="1" vertex="1">
          <mxGeometry x="220" y="1040" width="40" height="30" as="geometry" />
        </mxCell>
        <mxCell id="kN5ktuVqzW80JllqX5qt-5" value="300" style="text;html=1;align=center;verticalAlign=middle;resizable=0;points=[];autosize=1;strokeColor=none;fillColor=none;" parent="1" vertex="1">
          <mxGeometry x="320" y="1040" width="40" height="30" as="geometry" />
        </mxCell>
        <mxCell id="kN5ktuVqzW80JllqX5qt-6" value="400" style="text;html=1;align=center;verticalAlign=middle;resizable=0;points=[];autosize=1;strokeColor=none;fillColor=none;" parent="1" vertex="1">
          <mxGeometry x="420" y="1040" width="40" height="30" as="geometry" />
        </mxCell>
        <mxCell id="kN5ktuVqzW80JllqX5qt-8" value="" style="endArrow=none;dashed=1;html=1;dashPattern=1 3;strokeWidth=2;rounded=0;" parent="1" edge="1">
          <mxGeometry width="50" height="50" relative="1" as="geometry">
            <mxPoint x="140" y="1040" as="sourcePoint" />
            <mxPoint x="140" y="40" as="targetPoint" />
          </mxGeometry>
        </mxCell>
        <mxCell id="kN5ktuVqzW80JllqX5qt-11" value="" style="endArrow=none;dashed=1;html=1;dashPattern=1 3;strokeWidth=2;rounded=0;entryX=0.049;entryY=-0.001;entryDx=0;entryDy=0;entryPerimeter=0;" parent="1" edge="1">
          <mxGeometry width="50" height="50" relative="1" as="geometry">
            <mxPoint x="342" y="1041" as="sourcePoint" />
            <mxPoint x="340" y="40" as="targetPoint" />
          </mxGeometry>
        </mxCell>
        <mxCell id="kN5ktuVqzW80JllqX5qt-12" value="" style="endArrow=none;dashed=1;html=1;dashPattern=1 3;strokeWidth=2;rounded=0;entryX=0.049;entryY=-0.001;entryDx=0;entryDy=0;entryPerimeter=0;" parent="1" edge="1">
          <mxGeometry width="50" height="50" relative="1" as="geometry">
            <mxPoint x="442" y="1041" as="sourcePoint" />
            <mxPoint x="440" y="40" as="targetPoint" />
          </mxGeometry>
        </mxCell>
        <mxCell id="kN5ktuVqzW80JllqX5qt-13" value="" style="endArrow=none;dashed=1;html=1;dashPattern=1 3;strokeWidth=2;rounded=0;entryX=0.049;entryY=-0.001;entryDx=0;entryDy=0;entryPerimeter=0;" parent="1" edge="1">
          <mxGeometry width="50" height="50" relative="1" as="geometry">
            <mxPoint x="542" y="1041" as="sourcePoint" />
            <mxPoint x="540" y="40" as="targetPoint" />
          </mxGeometry>
        </mxCell>
        <mxCell id="kN5ktuVqzW80JllqX5qt-14" value="" style="endArrow=none;dashed=1;html=1;dashPattern=1 3;strokeWidth=2;rounded=0;entryX=0.049;entryY=-0.001;entryDx=0;entryDy=0;entryPerimeter=0;" parent="1" edge="1">
          <mxGeometry width="50" height="50" relative="1" as="geometry">
            <mxPoint x="642" y="1041" as="sourcePoint" />
            <mxPoint x="640" y="40" as="targetPoint" />
          </mxGeometry>
        </mxCell>
        <mxCell id="kN5ktuVqzW80JllqX5qt-15" value="" style="endArrow=none;dashed=1;html=1;dashPattern=1 3;strokeWidth=2;rounded=0;entryX=0.049;entryY=-0.001;entryDx=0;entryDy=0;entryPerimeter=0;" parent="1" edge="1">
          <mxGeometry width="50" height="50" relative="1" as="geometry">
            <mxPoint x="742" y="1041" as="sourcePoint" />
            <mxPoint x="740" y="40" as="targetPoint" />
          </mxGeometry>
        </mxCell>
        <mxCell id="kN5ktuVqzW80JllqX5qt-16" value="" style="endArrow=none;dashed=1;html=1;dashPattern=1 3;strokeWidth=2;rounded=0;entryX=0.049;entryY=-0.001;entryDx=0;entryDy=0;entryPerimeter=0;" parent="1" edge="1">
          <mxGeometry width="50" height="50" relative="1" as="geometry">
            <mxPoint x="842" y="1041" as="sourcePoint" />
            <mxPoint x="840" y="40" as="targetPoint" />
          </mxGeometry>
        </mxCell>
        <mxCell id="kN5ktuVqzW80JllqX5qt-17" value="" style="endArrow=none;dashed=1;html=1;dashPattern=1 3;strokeWidth=2;rounded=0;entryX=0.049;entryY=-0.001;entryDx=0;entryDy=0;entryPerimeter=0;" parent="1" edge="1">
          <mxGeometry width="50" height="50" relative="1" as="geometry">
            <mxPoint x="942" y="1041" as="sourcePoint" />
            <mxPoint x="940" y="40" as="targetPoint" />
          </mxGeometry>
        </mxCell>
        <mxCell id="kN5ktuVqzW80JllqX5qt-18" value="" style="endArrow=none;dashed=1;html=1;dashPattern=1 3;strokeWidth=2;rounded=0;entryX=0.049;entryY=-0.001;entryDx=0;entryDy=0;entryPerimeter=0;" parent="1" edge="1">
          <mxGeometry width="50" height="50" relative="1" as="geometry">
            <mxPoint x="1041" y="1041" as="sourcePoint" />
            <mxPoint x="1039" y="40" as="targetPoint" />
          </mxGeometry>
        </mxCell>
        <mxCell id="kN5ktuVqzW80JllqX5qt-19" value="" style="endArrow=none;dashed=1;html=1;dashPattern=1 3;strokeWidth=2;rounded=0;entryX=0.049;entryY=-0.001;entryDx=0;entryDy=0;entryPerimeter=0;" parent="1" edge="1">
          <mxGeometry width="50" height="50" relative="1" as="geometry">
            <mxPoint x="1140" y="1030" as="sourcePoint" />
            <mxPoint x="1140" y="40" as="targetPoint" />
          </mxGeometry>
        </mxCell>
        <mxCell id="kN5ktuVqzW80JllqX5qt-20" value="" style="endArrow=none;dashed=1;html=1;dashPattern=1 3;strokeWidth=2;rounded=0;entryX=0.049;entryY=-0.001;entryDx=0;entryDy=0;entryPerimeter=0;" parent="1" edge="1">
          <mxGeometry width="50" height="50" relative="1" as="geometry">
            <mxPoint x="1242" y="1041" as="sourcePoint" />
            <mxPoint x="1240" y="40" as="targetPoint" />
          </mxGeometry>
        </mxCell>
        <mxCell id="kN5ktuVqzW80JllqX5qt-21" value="500" style="text;html=1;align=center;verticalAlign=middle;resizable=0;points=[];autosize=1;strokeColor=none;fillColor=none;" parent="1" vertex="1">
          <mxGeometry x="520" y="1040" width="40" height="30" as="geometry" />
        </mxCell>
        <mxCell id="kN5ktuVqzW80JllqX5qt-22" value="600" style="text;html=1;align=center;verticalAlign=middle;resizable=0;points=[];autosize=1;strokeColor=none;fillColor=none;" parent="1" vertex="1">
          <mxGeometry x="620" y="1040" width="40" height="30" as="geometry" />
        </mxCell>
        <mxCell id="kN5ktuVqzW80JllqX5qt-23" value="700" style="text;html=1;align=center;verticalAlign=middle;resizable=0;points=[];autosize=1;strokeColor=none;fillColor=none;" parent="1" vertex="1">
          <mxGeometry x="720" y="1040" width="40" height="30" as="geometry" />
        </mxCell>
        <mxCell id="kN5ktuVqzW80JllqX5qt-24" value="800" style="text;html=1;align=center;verticalAlign=middle;resizable=0;points=[];autosize=1;strokeColor=none;fillColor=none;" parent="1" vertex="1">
          <mxGeometry x="820" y="1040" width="40" height="30" as="geometry" />
        </mxCell>
        <mxCell id="kN5ktuVqzW80JllqX5qt-25" value="900" style="text;html=1;align=center;verticalAlign=middle;resizable=0;points=[];autosize=1;strokeColor=none;fillColor=none;" parent="1" vertex="1">
          <mxGeometry x="920" y="1040" width="40" height="30" as="geometry" />
        </mxCell>
        <mxCell id="kN5ktuVqzW80JllqX5qt-26" value="1000" style="text;html=1;align=center;verticalAlign=middle;resizable=0;points=[];autosize=1;strokeColor=none;fillColor=none;" parent="1" vertex="1">
          <mxGeometry x="1015" y="1040" width="50" height="30" as="geometry" />
        </mxCell>
        <mxCell id="kN5ktuVqzW80JllqX5qt-27" value="1100" style="text;html=1;align=center;verticalAlign=middle;resizable=0;points=[];autosize=1;strokeColor=none;fillColor=none;" parent="1" vertex="1">
          <mxGeometry x="1110" y="1040" width="50" height="30" as="geometry" />
        </mxCell>
        <mxCell id="kN5ktuVqzW80JllqX5qt-28" value="1200" style="text;html=1;align=center;verticalAlign=middle;resizable=0;points=[];autosize=1;strokeColor=none;fillColor=none;" parent="1" vertex="1">
          <mxGeometry x="1210" y="1040" width="50" height="30" as="geometry" />
        </mxCell>
        <mxCell id="kN5ktuVqzW80JllqX5qt-29" value="" style="endArrow=none;dashed=1;html=1;dashPattern=1 3;strokeWidth=2;rounded=0;entryX=0.049;entryY=-0.001;entryDx=0;entryDy=0;entryPerimeter=0;" parent="1" edge="1">
          <mxGeometry width="50" height="50" relative="1" as="geometry">
            <mxPoint x="1342" y="1041" as="sourcePoint" />
            <mxPoint x="1340" y="40" as="targetPoint" />
          </mxGeometry>
        </mxCell>
        <mxCell id="kN5ktuVqzW80JllqX5qt-30" value="" style="endArrow=none;dashed=1;html=1;dashPattern=1 3;strokeWidth=2;rounded=0;entryX=0.049;entryY=-0.001;entryDx=0;entryDy=0;entryPerimeter=0;" parent="1" edge="1">
          <mxGeometry width="50" height="50" relative="1" as="geometry">
            <mxPoint x="1442" y="1041" as="sourcePoint" />
            <mxPoint x="1440" y="40" as="targetPoint" />
          </mxGeometry>
        </mxCell>
        <mxCell id="kN5ktuVqzW80JllqX5qt-31" value="" style="endArrow=none;dashed=1;html=1;dashPattern=1 3;strokeWidth=2;rounded=0;entryX=0.049;entryY=-0.001;entryDx=0;entryDy=0;entryPerimeter=0;" parent="1" edge="1">
          <mxGeometry width="50" height="50" relative="1" as="geometry">
            <mxPoint x="1542" y="1041" as="sourcePoint" />
            <mxPoint x="1540" y="40" as="targetPoint" />
          </mxGeometry>
        </mxCell>
        <mxCell id="kN5ktuVqzW80JllqX5qt-32" value="" style="endArrow=none;dashed=1;html=1;dashPattern=1 3;strokeWidth=2;rounded=0;entryX=0.049;entryY=-0.001;entryDx=0;entryDy=0;entryPerimeter=0;" parent="1" edge="1">
          <mxGeometry width="50" height="50" relative="1" as="geometry">
            <mxPoint x="1642" y="1041" as="sourcePoint" />
            <mxPoint x="1640" y="40" as="targetPoint" />
          </mxGeometry>
        </mxCell>
        <mxCell id="kN5ktuVqzW80JllqX5qt-33" value="" style="endArrow=none;dashed=1;html=1;dashPattern=1 3;strokeWidth=2;rounded=0;entryX=0.049;entryY=-0.001;entryDx=0;entryDy=0;entryPerimeter=0;" parent="1" edge="1">
          <mxGeometry width="50" height="50" relative="1" as="geometry">
            <mxPoint x="1742" y="1041" as="sourcePoint" />
            <mxPoint x="1740" y="40" as="targetPoint" />
          </mxGeometry>
        </mxCell>
        <mxCell id="kN5ktuVqzW80JllqX5qt-34" value="" style="endArrow=none;dashed=1;html=1;dashPattern=1 3;strokeWidth=2;rounded=0;entryX=0.049;entryY=-0.001;entryDx=0;entryDy=0;entryPerimeter=0;" parent="1" edge="1">
          <mxGeometry width="50" height="50" relative="1" as="geometry">
            <mxPoint x="1842" y="1041" as="sourcePoint" />
            <mxPoint x="1840" y="40" as="targetPoint" />
          </mxGeometry>
        </mxCell>
        <mxCell id="kN5ktuVqzW80JllqX5qt-35" value="" style="endArrow=none;dashed=1;html=1;dashPattern=1 3;strokeWidth=2;rounded=0;entryX=0.049;entryY=-0.001;entryDx=0;entryDy=0;entryPerimeter=0;" parent="1" edge="1">
          <mxGeometry width="50" height="50" relative="1" as="geometry">
            <mxPoint x="1942" y="1041" as="sourcePoint" />
            <mxPoint x="1940" y="40" as="targetPoint" />
          </mxGeometry>
        </mxCell>
        <mxCell id="kN5ktuVqzW80JllqX5qt-36" value="1300" style="text;html=1;align=center;verticalAlign=middle;resizable=0;points=[];autosize=1;strokeColor=none;fillColor=none;" parent="1" vertex="1">
          <mxGeometry x="1310" y="1040" width="50" height="30" as="geometry" />
        </mxCell>
        <mxCell id="kN5ktuVqzW80JllqX5qt-37" value="1400" style="text;html=1;align=center;verticalAlign=middle;resizable=0;points=[];autosize=1;strokeColor=none;fillColor=none;" parent="1" vertex="1">
          <mxGeometry x="1410" y="1040" width="50" height="30" as="geometry" />
        </mxCell>
        <mxCell id="kN5ktuVqzW80JllqX5qt-38" value="1500" style="text;html=1;align=center;verticalAlign=middle;resizable=0;points=[];autosize=1;strokeColor=none;fillColor=none;" parent="1" vertex="1">
          <mxGeometry x="1510" y="1040" width="50" height="30" as="geometry" />
        </mxCell>
        <mxCell id="kN5ktuVqzW80JllqX5qt-39" value="1600" style="text;html=1;align=center;verticalAlign=middle;resizable=0;points=[];autosize=1;strokeColor=none;fillColor=none;" parent="1" vertex="1">
          <mxGeometry x="1610" y="1040" width="50" height="30" as="geometry" />
        </mxCell>
        <mxCell id="kN5ktuVqzW80JllqX5qt-40" value="1700" style="text;html=1;align=center;verticalAlign=middle;resizable=0;points=[];autosize=1;strokeColor=none;fillColor=none;" parent="1" vertex="1">
          <mxGeometry x="1710" y="1040" width="50" height="30" as="geometry" />
        </mxCell>
        <mxCell id="kN5ktuVqzW80JllqX5qt-41" value="1800" style="text;html=1;align=center;verticalAlign=middle;resizable=0;points=[];autosize=1;strokeColor=none;fillColor=none;" parent="1" vertex="1">
          <mxGeometry x="1810" y="1040" width="50" height="30" as="geometry" />
        </mxCell>
        <mxCell id="kN5ktuVqzW80JllqX5qt-43" value="1900" style="text;html=1;align=center;verticalAlign=middle;resizable=0;points=[];autosize=1;strokeColor=none;fillColor=none;" parent="1" vertex="1">
          <mxGeometry x="1910" y="1040" width="50" height="30" as="geometry" />
        </mxCell>
        <mxCell id="kN5ktuVqzW80JllqX5qt-44" value="2000" style="text;html=1;align=center;verticalAlign=middle;resizable=0;points=[];autosize=1;strokeColor=none;fillColor=none;" parent="1" vertex="1">
          <mxGeometry x="2010" y="1040" width="50" height="30" as="geometry" />
        </mxCell>
        <mxCell id="kN5ktuVqzW80JllqX5qt-45" value="" style="endArrow=none;dashed=1;html=1;dashPattern=1 3;strokeWidth=2;rounded=0;entryX=-0.001;entryY=0.1;entryDx=0;entryDy=0;entryPerimeter=0;exitX=0.999;exitY=0.1;exitDx=0;exitDy=0;exitPerimeter=0;" parent="1" source="kN5ktuVqzW80JllqX5qt-1" target="kN5ktuVqzW80JllqX5qt-1" edge="1">
          <mxGeometry width="50" height="50" relative="1" as="geometry">
            <mxPoint x="150" y="1050" as="sourcePoint" />
            <mxPoint x="150" y="50" as="targetPoint" />
          </mxGeometry>
        </mxCell>
        <mxCell id="kN5ktuVqzW80JllqX5qt-46" value="" style="endArrow=none;dashed=1;html=1;dashPattern=1 3;strokeWidth=2;rounded=0;entryX=-0.001;entryY=0.1;entryDx=0;entryDy=0;entryPerimeter=0;exitX=0.999;exitY=0.1;exitDx=0;exitDy=0;exitPerimeter=0;" parent="1" edge="1">
          <mxGeometry width="50" height="50" relative="1" as="geometry">
            <mxPoint x="719.5999999999999" y="231" as="sourcePoint" />
            <mxPoint x="40" y="240" as="targetPoint" />
          </mxGeometry>
        </mxCell>
        <mxCell id="kN5ktuVqzW80JllqX5qt-47" value="" style="endArrow=none;dashed=1;html=1;dashPattern=1 3;strokeWidth=2;rounded=0;entryX=-0.001;entryY=0.1;entryDx=0;entryDy=0;entryPerimeter=0;exitX=0.999;exitY=0.1;exitDx=0;exitDy=0;exitPerimeter=0;" parent="1" edge="1">
          <mxGeometry width="50" height="50" relative="1" as="geometry">
            <mxPoint x="2040" y="340" as="sourcePoint" />
            <mxPoint x="40" y="340" as="targetPoint" />
          </mxGeometry>
        </mxCell>
        <mxCell id="kN5ktuVqzW80JllqX5qt-48" value="" style="endArrow=none;dashed=1;html=1;dashPattern=1 3;strokeWidth=2;rounded=0;entryX=-0.001;entryY=0.1;entryDx=0;entryDy=0;entryPerimeter=0;exitX=0.999;exitY=0.1;exitDx=0;exitDy=0;exitPerimeter=0;" parent="1" edge="1">
          <mxGeometry width="50" height="50" relative="1" as="geometry">
            <mxPoint x="2040" y="440" as="sourcePoint" />
            <mxPoint x="40" y="440" as="targetPoint" />
          </mxGeometry>
        </mxCell>
        <mxCell id="kN5ktuVqzW80JllqX5qt-49" value="" style="endArrow=none;dashed=1;html=1;dashPattern=1 3;strokeWidth=2;rounded=0;entryX=-0.001;entryY=0.1;entryDx=0;entryDy=0;entryPerimeter=0;exitX=0.999;exitY=0.1;exitDx=0;exitDy=0;exitPerimeter=0;" parent="1" edge="1">
          <mxGeometry width="50" height="50" relative="1" as="geometry">
            <mxPoint x="2040" y="539.5" as="sourcePoint" />
            <mxPoint x="40" y="539.5" as="targetPoint" />
          </mxGeometry>
        </mxCell>
        <mxCell id="kN5ktuVqzW80JllqX5qt-50" value="" style="endArrow=none;dashed=1;html=1;dashPattern=1 3;strokeWidth=2;rounded=0;entryX=-0.001;entryY=0.1;entryDx=0;entryDy=0;entryPerimeter=0;exitX=0.999;exitY=0.1;exitDx=0;exitDy=0;exitPerimeter=0;" parent="1" edge="1">
          <mxGeometry width="50" height="50" relative="1" as="geometry">
            <mxPoint x="2040" y="640" as="sourcePoint" />
            <mxPoint x="40" y="640" as="targetPoint" />
          </mxGeometry>
        </mxCell>
        <mxCell id="kN5ktuVqzW80JllqX5qt-51" value="" style="endArrow=none;dashed=1;html=1;dashPattern=1 3;strokeWidth=2;rounded=0;entryX=-0.001;entryY=0.1;entryDx=0;entryDy=0;entryPerimeter=0;exitX=0.999;exitY=0.1;exitDx=0;exitDy=0;exitPerimeter=0;" parent="1" edge="1">
          <mxGeometry width="50" height="50" relative="1" as="geometry">
            <mxPoint x="2040" y="740" as="sourcePoint" />
            <mxPoint x="40" y="740" as="targetPoint" />
          </mxGeometry>
        </mxCell>
        <mxCell id="kN5ktuVqzW80JllqX5qt-52" value="" style="endArrow=none;dashed=1;html=1;dashPattern=1 3;strokeWidth=2;rounded=0;entryX=-0.001;entryY=0.1;entryDx=0;entryDy=0;entryPerimeter=0;exitX=0.999;exitY=0.1;exitDx=0;exitDy=0;exitPerimeter=0;" parent="1" edge="1">
          <mxGeometry width="50" height="50" relative="1" as="geometry">
            <mxPoint x="2040" y="840" as="sourcePoint" />
            <mxPoint x="40" y="840" as="targetPoint" />
          </mxGeometry>
        </mxCell>
        <mxCell id="kN5ktuVqzW80JllqX5qt-53" value="" style="endArrow=none;dashed=1;html=1;dashPattern=1 3;strokeWidth=2;rounded=0;entryX=-0.001;entryY=0.1;entryDx=0;entryDy=0;entryPerimeter=0;exitX=0.999;exitY=0.1;exitDx=0;exitDy=0;exitPerimeter=0;" parent="1" edge="1">
          <mxGeometry width="50" height="50" relative="1" as="geometry">
            <mxPoint x="2040" y="940" as="sourcePoint" />
            <mxPoint x="40" y="940" as="targetPoint" />
          </mxGeometry>
        </mxCell>
        <mxCell id="kN5ktuVqzW80JllqX5qt-54" value="100" style="text;html=1;align=center;verticalAlign=middle;resizable=0;points=[];autosize=1;strokeColor=none;fillColor=none;" parent="1" vertex="1">
          <mxGeometry y="920" width="40" height="30" as="geometry" />
        </mxCell>
        <mxCell id="kN5ktuVqzW80JllqX5qt-55" value="200" style="text;html=1;align=center;verticalAlign=middle;resizable=0;points=[];autosize=1;strokeColor=none;fillColor=none;" parent="1" vertex="1">
          <mxGeometry y="830" width="40" height="30" as="geometry" />
        </mxCell>
        <mxCell id="kN5ktuVqzW80JllqX5qt-57" value="300" style="text;html=1;align=center;verticalAlign=middle;resizable=0;points=[];autosize=1;strokeColor=none;fillColor=none;" parent="1" vertex="1">
          <mxGeometry y="730" width="40" height="30" as="geometry" />
        </mxCell>
        <mxCell id="kN5ktuVqzW80JllqX5qt-58" value="400" style="text;html=1;align=center;verticalAlign=middle;resizable=0;points=[];autosize=1;strokeColor=none;fillColor=none;" parent="1" vertex="1">
          <mxGeometry y="630" width="40" height="30" as="geometry" />
        </mxCell>
        <mxCell id="kN5ktuVqzW80JllqX5qt-60" value="500" style="text;html=1;align=center;verticalAlign=middle;resizable=0;points=[];autosize=1;strokeColor=none;fillColor=none;" parent="1" vertex="1">
          <mxGeometry y="525" width="40" height="30" as="geometry" />
        </mxCell>
        <mxCell id="kN5ktuVqzW80JllqX5qt-61" value="600" style="text;html=1;align=center;verticalAlign=middle;resizable=0;points=[];autosize=1;strokeColor=none;fillColor=none;" parent="1" vertex="1">
          <mxGeometry y="430" width="40" height="30" as="geometry" />
        </mxCell>
        <mxCell id="kN5ktuVqzW80JllqX5qt-62" value="700" style="text;html=1;align=center;verticalAlign=middle;resizable=0;points=[];autosize=1;strokeColor=none;fillColor=none;" parent="1" vertex="1">
          <mxGeometry y="330" width="40" height="30" as="geometry" />
        </mxCell>
        <mxCell id="kN5ktuVqzW80JllqX5qt-63" value="800" style="text;html=1;align=center;verticalAlign=middle;resizable=0;points=[];autosize=1;strokeColor=none;fillColor=none;" parent="1" vertex="1">
          <mxGeometry y="220" width="40" height="30" as="geometry" />
        </mxCell>
        <mxCell id="kN5ktuVqzW80JllqX5qt-65" value="900" style="text;html=1;align=center;verticalAlign=middle;resizable=0;points=[];autosize=1;strokeColor=none;fillColor=none;" parent="1" vertex="1">
          <mxGeometry y="130" width="40" height="30" as="geometry" />
        </mxCell>
        <mxCell id="kN5ktuVqzW80JllqX5qt-66" value="1000" style="text;html=1;align=center;verticalAlign=middle;resizable=0;points=[];autosize=1;strokeColor=none;fillColor=none;" parent="1" vertex="1">
          <mxGeometry x="-5" y="30" width="50" height="30" as="geometry" />
        </mxCell>
        <mxCell id="p9ABaDChbXEGLRk1TbIs-7" value="" style="group" parent="1" vertex="1" connectable="0">
          <mxGeometry x="50" y="50" width="160" height="90" as="geometry" />
        </mxCell>
        <mxCell id="p9ABaDChbXEGLRk1TbIs-2" value="" style="rounded=0;whiteSpace=wrap;html=1;fillColor=#D4E1F5;" parent="p9ABaDChbXEGLRk1TbIs-7" vertex="1">
          <mxGeometry width="80" height="80" as="geometry" />
        </mxCell>
        <mxCell id="p9ABaDChbXEGLRk1TbIs-3" value="" style="rounded=0;whiteSpace=wrap;html=1;fillColor=#D4E1F5;" parent="p9ABaDChbXEGLRk1TbIs-7" vertex="1">
          <mxGeometry x="80" width="80" height="80" as="geometry" />
        </mxCell>
        <mxCell id="p9ABaDChbXEGLRk1TbIs-4" value="" style="ellipse;whiteSpace=wrap;html=1;aspect=fixed;" parent="p9ABaDChbXEGLRk1TbIs-7" vertex="1">
          <mxGeometry x="70" y="30" width="20" height="20" as="geometry" />
        </mxCell>
        <mxCell id="p9ABaDChbXEGLRk1TbIs-6" value="" style="endArrow=none;html=1;rounded=0;" parent="p9ABaDChbXEGLRk1TbIs-7" edge="1">
          <mxGeometry width="50" height="50" relative="1" as="geometry">
            <mxPoint x="40" y="39.5" as="sourcePoint" />
            <mxPoint x="120" y="39.5" as="targetPoint" />
          </mxGeometry>
        </mxCell>
        <mxCell id="p9ABaDChbXEGLRk1TbIs-10" value="" style="rounded=0;whiteSpace=wrap;html=1;" parent="p9ABaDChbXEGLRk1TbIs-7" vertex="1">
          <mxGeometry x="10" y="10" width="10" height="60" as="geometry" />
        </mxCell>
        <mxCell id="p9ABaDChbXEGLRk1TbIs-11" value="" style="rounded=0;whiteSpace=wrap;html=1;" parent="p9ABaDChbXEGLRk1TbIs-7" vertex="1">
          <mxGeometry x="10" y="10" width="60" height="10" as="geometry" />
        </mxCell>
        <mxCell id="p9ABaDChbXEGLRk1TbIs-12" value="" style="rounded=0;whiteSpace=wrap;html=1;" parent="p9ABaDChbXEGLRk1TbIs-7" vertex="1">
          <mxGeometry x="60" y="10" width="10" height="60" as="geometry" />
        </mxCell>
        <mxCell id="p9ABaDChbXEGLRk1TbIs-13" value="" style="rounded=0;whiteSpace=wrap;html=1;" parent="p9ABaDChbXEGLRk1TbIs-7" vertex="1">
          <mxGeometry x="90" y="10" width="10" height="60" as="geometry" />
        </mxCell>
        <mxCell id="p9ABaDChbXEGLRk1TbIs-14" value="" style="rounded=0;whiteSpace=wrap;html=1;" parent="p9ABaDChbXEGLRk1TbIs-7" vertex="1">
          <mxGeometry x="90" y="10" width="60" height="10" as="geometry" />
        </mxCell>
        <mxCell id="p9ABaDChbXEGLRk1TbIs-15" value="" style="rounded=0;whiteSpace=wrap;html=1;" parent="p9ABaDChbXEGLRk1TbIs-7" vertex="1">
          <mxGeometry x="140" y="10" width="10" height="60" as="geometry" />
        </mxCell>
        <mxCell id="p9ABaDChbXEGLRk1TbIs-16" value="" style="rounded=0;whiteSpace=wrap;html=1;fillColor=#EA6B66;" parent="p9ABaDChbXEGLRk1TbIs-7" vertex="1">
          <mxGeometry x="75" y="35" width="10" height="10" as="geometry" />
        </mxCell>
        <mxCell id="p9ABaDChbXEGLRk1TbIs-17" value="" style="rounded=0;whiteSpace=wrap;html=1;" parent="p9ABaDChbXEGLRk1TbIs-7" vertex="1">
          <mxGeometry x="10" y="60" width="60" height="10" as="geometry" />
        </mxCell>
        <mxCell id="p9ABaDChbXEGLRk1TbIs-22" value="" style="rounded=0;whiteSpace=wrap;html=1;" parent="p9ABaDChbXEGLRk1TbIs-7" vertex="1">
          <mxGeometry x="90" y="60" width="60" height="10" as="geometry" />
        </mxCell>
        <mxCell id="QGDcpnHU0Ge7co4Lcr1x-1" value="" style="rounded=0;whiteSpace=wrap;html=1;fillColor=#D5E8D4;" parent="1" vertex="1">
          <mxGeometry x="-260" y="190" width="80" height="10" as="geometry" />
        </mxCell>
        <mxCell id="QGDcpnHU0Ge7co4Lcr1x-2" value="cold plates" style="text;html=1;align=center;verticalAlign=middle;resizable=0;points=[];autosize=1;strokeColor=none;fillColor=none;" parent="1" vertex="1">
          <mxGeometry x="-260" y="160" width="80" height="30" as="geometry" />
        </mxCell>
        <mxCell id="QGDcpnHU0Ge7co4Lcr1x-6" value="" style="endArrow=none;dashed=1;html=1;dashPattern=1 3;strokeWidth=2;rounded=0;entryX=0.049;entryY=-0.001;entryDx=0;entryDy=0;entryPerimeter=0;" parent="1" edge="1">
          <mxGeometry width="50" height="50" relative="1" as="geometry">
            <mxPoint x="242" y="1040" as="sourcePoint" />
            <mxPoint x="221.96000000000004" y="49.960000000000036" as="targetPoint" />
          </mxGeometry>
        </mxCell>
        <mxCell id="QGDcpnHU0Ge7co4Lcr1x-9" value="" style="rounded=0;whiteSpace=wrap;html=1;" parent="1" vertex="1">
          <mxGeometry x="-260" y="240" width="80" height="10" as="geometry" />
        </mxCell>
        <mxCell id="QGDcpnHU0Ge7co4Lcr1x-10" value="plumbing" style="text;html=1;align=center;verticalAlign=middle;resizable=0;points=[];autosize=1;strokeColor=none;fillColor=none;" parent="1" vertex="1">
          <mxGeometry x="-255" y="210" width="70" height="30" as="geometry" />
        </mxCell>
        <mxCell id="QGDcpnHU0Ge7co4Lcr1x-11" value="" style="ellipse;whiteSpace=wrap;html=1;aspect=fixed;" parent="1" vertex="1">
          <mxGeometry x="-260" y="130" width="20" height="20" as="geometry" />
        </mxCell>
        <mxCell id="QGDcpnHU0Ge7co4Lcr1x-12" value="controller" style="text;html=1;align=center;verticalAlign=middle;resizable=0;points=[];autosize=1;strokeColor=none;fillColor=none;" parent="1" vertex="1">
          <mxGeometry x="-255" y="100" width="70" height="30" as="geometry" />
        </mxCell>
        <mxCell id="QGDcpnHU0Ge7co4Lcr1x-13" value="" style="rounded=0;whiteSpace=wrap;html=1;fillColor=#FFD966;" parent="1" vertex="1">
          <mxGeometry x="-260" y="60" width="40" height="40" as="geometry" />
        </mxCell>
        <mxCell id="QGDcpnHU0Ge7co4Lcr1x-14" value="accumulators" style="text;html=1;align=center;verticalAlign=middle;resizable=0;points=[];autosize=1;strokeColor=none;fillColor=none;" parent="1" vertex="1">
          <mxGeometry x="-270" y="30" width="90" height="30" as="geometry" />
        </mxCell>
        <mxCell id="QGDcpnHU0Ge7co4Lcr1x-29" value="" style="rounded=0;whiteSpace=wrap;html=1;fillColor=#D4E1F5;" parent="1" vertex="1">
          <mxGeometry x="-260" y="300" width="80" height="20" as="geometry" />
        </mxCell>
        <mxCell id="QGDcpnHU0Ge7co4Lcr1x-30" value="radiator panels&amp;nbsp;" style="text;html=1;align=center;verticalAlign=middle;resizable=0;points=[];autosize=1;strokeColor=none;fillColor=none;" parent="1" vertex="1">
          <mxGeometry x="-270" y="270" width="110" height="30" as="geometry" />
        </mxCell>
        <mxCell id="QGDcpnHU0Ge7co4Lcr1x-37" value="" style="group" parent="1" vertex="1" connectable="0">
          <mxGeometry x="930" y="360" width="370" height="370" as="geometry" />
        </mxCell>
        <mxCell id="QGDcpnHU0Ge7co4Lcr1x-33" value="" style="ellipse;whiteSpace=wrap;html=1;aspect=fixed;fillColor=#999999;" parent="QGDcpnHU0Ge7co4Lcr1x-37" vertex="1">
          <mxGeometry width="359.7222222222222" height="359.7222222222222" as="geometry" />
        </mxCell>
        <mxCell id="QGDcpnHU0Ge7co4Lcr1x-34" value="" style="ellipse;whiteSpace=wrap;html=1;aspect=fixed;fillColor=#4D4D4D;" parent="QGDcpnHU0Ge7co4Lcr1x-37" vertex="1">
          <mxGeometry x="4.404761904761905" y="4.404761904761904" width="351.1574074074074" height="351.1574074074074" as="geometry" />
        </mxCell>
        <mxCell id="QGDcpnHU0Ge7co4Lcr1x-35" value="" style="ellipse;whiteSpace=wrap;html=1;aspect=fixed;" parent="QGDcpnHU0Ge7co4Lcr1x-37" vertex="1">
          <mxGeometry x="9.910714285714286" y="9.910714285714285" width="340.45138888888886" height="340.45138888888886" as="geometry" />
        </mxCell>
        <mxCell id="QGDcpnHU0Ge7co4Lcr1x-42" value="" style="group" parent="1" vertex="1" connectable="0">
          <mxGeometry x="570" y="435" width="210" height="210" as="geometry" />
        </mxCell>
        <mxCell id="QGDcpnHU0Ge7co4Lcr1x-43" value="" style="ellipse;whiteSpace=wrap;html=1;aspect=fixed;fillColor=#999999;" parent="QGDcpnHU0Ge7co4Lcr1x-42" vertex="1">
          <mxGeometry width="204.16666666666663" height="204.16666666666663" as="geometry" />
        </mxCell>
        <mxCell id="QGDcpnHU0Ge7co4Lcr1x-44" value="" style="ellipse;whiteSpace=wrap;html=1;aspect=fixed;fillColor=#4D4D4D;" parent="QGDcpnHU0Ge7co4Lcr1x-42" vertex="1">
          <mxGeometry x="2.5" y="2.4999999999999996" width="199.30555555555554" height="199.30555555555554" as="geometry" />
        </mxCell>
        <mxCell id="QGDcpnHU0Ge7co4Lcr1x-45" value="" style="ellipse;whiteSpace=wrap;html=1;aspect=fixed;" parent="QGDcpnHU0Ge7co4Lcr1x-42" vertex="1">
          <mxGeometry x="5.625" y="5.624999999999999" width="193.22916666666663" height="193.22916666666663" as="geometry" />
        </mxCell>
        <mxCell id="HzqL7w1cNSSn5zW_tb3A-3" value="" style="rounded=0;whiteSpace=wrap;html=1;fillColor=#CCCCFF;rotation=30;" parent="QGDcpnHU0Ge7co4Lcr1x-42" vertex="1">
          <mxGeometry x="133" y="17" width="20" height="10" as="geometry" />
        </mxCell>
        <mxCell id="HzqL7w1cNSSn5zW_tb3A-6" value="" style="endArrow=none;html=1;rounded=0;entryX=0.996;entryY=0.442;entryDx=0;entryDy=0;entryPerimeter=0;exitX=0.664;exitY=0.033;exitDx=0;exitDy=0;exitPerimeter=0;" parent="QGDcpnHU0Ge7co4Lcr1x-42" source="QGDcpnHU0Ge7co4Lcr1x-45" target="QGDcpnHU0Ge7co4Lcr1x-45" edge="1">
          <mxGeometry width="50" height="50" relative="1" as="geometry">
            <mxPoint y="-85" as="sourcePoint" />
            <mxPoint x="50" y="-135" as="targetPoint" />
            <Array as="points">
              <mxPoint x="130" y="25" />
              <mxPoint x="130" y="45" />
              <mxPoint x="140" y="65" />
              <mxPoint x="160" y="85" />
              <mxPoint x="180" y="91" />
            </Array>
          </mxGeometry>
        </mxCell>
        <mxCell id="QGDcpnHU0Ge7co4Lcr1x-46" value="regolith" style="text;html=1;align=center;verticalAlign=middle;resizable=0;points=[];autosize=1;strokeColor=none;fillColor=none;" parent="1" vertex="1">
          <mxGeometry x="-430" y="160" width="60" height="30" as="geometry" />
        </mxCell>
        <mxCell id="QGDcpnHU0Ge7co4Lcr1x-47" value="" style="rounded=0;whiteSpace=wrap;html=1;fillColor=#CCCCCC;" parent="1" vertex="1">
          <mxGeometry x="-420" y="190" width="80" height="10" as="geometry" />
        </mxCell>
        <mxCell id="QGDcpnHU0Ge7co4Lcr1x-48" value="" style="rounded=0;whiteSpace=wrap;html=1;fillColor=#4D4D4D;" parent="1" vertex="1">
          <mxGeometry x="-420" y="240" width="80" height="10" as="geometry" />
        </mxCell>
        <mxCell id="QGDcpnHU0Ge7co4Lcr1x-50" value="metal structures" style="text;html=1;align=center;verticalAlign=middle;resizable=0;points=[];autosize=1;strokeColor=none;fillColor=none;" parent="1" vertex="1">
          <mxGeometry x="-435" y="210" width="110" height="30" as="geometry" />
        </mxCell>
        <mxCell id="QGDcpnHU0Ge7co4Lcr1x-51" value="" style="rounded=0;whiteSpace=wrap;html=1;fillColor=#67AB9F;" parent="1" vertex="1">
          <mxGeometry x="-260" y="359" width="20" height="21" as="geometry" />
        </mxCell>
        <mxCell id="QGDcpnHU0Ge7co4Lcr1x-55" value="pump" style="text;html=1;align=center;verticalAlign=middle;resizable=0;points=[];autosize=1;strokeColor=none;fillColor=none;" parent="1" vertex="1">
          <mxGeometry x="-250" y="330" width="50" height="30" as="geometry" />
        </mxCell>
        <mxCell id="V66jn4x__QXWx2226L4W-6" value="" style="shape=tee;whiteSpace=wrap;html=1;dx=10;dy=10;rotation=-180;fillColor=#EA6B66;" parent="1" vertex="1">
          <mxGeometry x="-260" y="439" width="30" height="20" as="geometry" />
        </mxCell>
        <mxCell id="V66jn4x__QXWx2226L4W-7" value="valves" style="text;html=1;align=center;verticalAlign=middle;resizable=0;points=[];autosize=1;strokeColor=none;fillColor=none;" parent="1" vertex="1">
          <mxGeometry x="-255" y="405" width="60" height="30" as="geometry" />
        </mxCell>
        <mxCell id="1L4stV24ktS_-sTFV0d5-2" value="" style="endArrow=none;dashed=1;html=1;dashPattern=1 3;strokeWidth=2;rounded=0;entryX=-0.001;entryY=0.1;entryDx=0;entryDy=0;entryPerimeter=0;exitX=0.999;exitY=0.1;exitDx=0;exitDy=0;exitPerimeter=0;" parent="1" edge="1">
          <mxGeometry width="50" height="50" relative="1" as="geometry">
            <mxPoint x="2040" y="240" as="sourcePoint" />
            <mxPoint x="319.5999999999999" y="231" as="targetPoint" />
          </mxGeometry>
        </mxCell>
        <mxCell id="Z4ZGMX_Dos0MWvp86Li_-1" value="" style="group" parent="1" vertex="1" connectable="0">
          <mxGeometry x="240" y="50" width="160" height="90" as="geometry" />
        </mxCell>
        <mxCell id="Z4ZGMX_Dos0MWvp86Li_-2" value="" style="rounded=0;whiteSpace=wrap;html=1;fillColor=#D4E1F5;" parent="Z4ZGMX_Dos0MWvp86Li_-1" vertex="1">
          <mxGeometry width="80" height="80" as="geometry" />
        </mxCell>
        <mxCell id="Z4ZGMX_Dos0MWvp86Li_-3" value="" style="rounded=0;whiteSpace=wrap;html=1;fillColor=#D4E1F5;" parent="Z4ZGMX_Dos0MWvp86Li_-1" vertex="1">
          <mxGeometry x="80" width="80" height="80" as="geometry" />
        </mxCell>
        <mxCell id="Z4ZGMX_Dos0MWvp86Li_-4" value="" style="ellipse;whiteSpace=wrap;html=1;aspect=fixed;" parent="Z4ZGMX_Dos0MWvp86Li_-1" vertex="1">
          <mxGeometry x="70" y="30" width="20" height="20" as="geometry" />
        </mxCell>
        <mxCell id="Z4ZGMX_Dos0MWvp86Li_-5" value="" style="endArrow=none;html=1;rounded=0;" parent="Z4ZGMX_Dos0MWvp86Li_-1" edge="1">
          <mxGeometry width="50" height="50" relative="1" as="geometry">
            <mxPoint x="40" y="39.5" as="sourcePoint" />
            <mxPoint x="120" y="39.5" as="targetPoint" />
          </mxGeometry>
        </mxCell>
        <mxCell id="Z4ZGMX_Dos0MWvp86Li_-6" value="" style="rounded=0;whiteSpace=wrap;html=1;" parent="Z4ZGMX_Dos0MWvp86Li_-1" vertex="1">
          <mxGeometry x="10" y="10" width="10" height="60" as="geometry" />
        </mxCell>
        <mxCell id="Z4ZGMX_Dos0MWvp86Li_-7" value="" style="rounded=0;whiteSpace=wrap;html=1;" parent="Z4ZGMX_Dos0MWvp86Li_-1" vertex="1">
          <mxGeometry x="10" y="10" width="60" height="10" as="geometry" />
        </mxCell>
        <mxCell id="Z4ZGMX_Dos0MWvp86Li_-8" value="" style="rounded=0;whiteSpace=wrap;html=1;" parent="Z4ZGMX_Dos0MWvp86Li_-1" vertex="1">
          <mxGeometry x="60" y="10" width="10" height="60" as="geometry" />
        </mxCell>
        <mxCell id="Z4ZGMX_Dos0MWvp86Li_-9" value="" style="rounded=0;whiteSpace=wrap;html=1;" parent="Z4ZGMX_Dos0MWvp86Li_-1" vertex="1">
          <mxGeometry x="90" y="10" width="10" height="60" as="geometry" />
        </mxCell>
        <mxCell id="Z4ZGMX_Dos0MWvp86Li_-10" value="" style="rounded=0;whiteSpace=wrap;html=1;" parent="Z4ZGMX_Dos0MWvp86Li_-1" vertex="1">
          <mxGeometry x="90" y="10" width="60" height="10" as="geometry" />
        </mxCell>
        <mxCell id="Z4ZGMX_Dos0MWvp86Li_-11" value="" style="rounded=0;whiteSpace=wrap;html=1;" parent="Z4ZGMX_Dos0MWvp86Li_-1" vertex="1">
          <mxGeometry x="140" y="10" width="10" height="60" as="geometry" />
        </mxCell>
        <mxCell id="Z4ZGMX_Dos0MWvp86Li_-12" value="" style="rounded=0;whiteSpace=wrap;html=1;fillColor=#EA6B66;" parent="Z4ZGMX_Dos0MWvp86Li_-1" vertex="1">
          <mxGeometry x="75" y="35" width="10" height="10" as="geometry" />
        </mxCell>
        <mxCell id="Z4ZGMX_Dos0MWvp86Li_-13" value="" style="rounded=0;whiteSpace=wrap;html=1;" parent="Z4ZGMX_Dos0MWvp86Li_-1" vertex="1">
          <mxGeometry x="10" y="60" width="60" height="10" as="geometry" />
        </mxCell>
        <mxCell id="Z4ZGMX_Dos0MWvp86Li_-14" value="" style="rounded=0;whiteSpace=wrap;html=1;" parent="Z4ZGMX_Dos0MWvp86Li_-1" vertex="1">
          <mxGeometry x="90" y="60" width="60" height="10" as="geometry" />
        </mxCell>
        <mxCell id="Z4ZGMX_Dos0MWvp86Li_-15" value="" style="group" parent="1" vertex="1" connectable="0">
          <mxGeometry x="430" y="50" width="160" height="90" as="geometry" />
        </mxCell>
        <mxCell id="Z4ZGMX_Dos0MWvp86Li_-16" value="" style="rounded=0;whiteSpace=wrap;html=1;fillColor=#D4E1F5;" parent="Z4ZGMX_Dos0MWvp86Li_-15" vertex="1">
          <mxGeometry width="80" height="80" as="geometry" />
        </mxCell>
        <mxCell id="Z4ZGMX_Dos0MWvp86Li_-17" value="" style="rounded=0;whiteSpace=wrap;html=1;fillColor=#D4E1F5;" parent="Z4ZGMX_Dos0MWvp86Li_-15" vertex="1">
          <mxGeometry x="80" width="80" height="80" as="geometry" />
        </mxCell>
        <mxCell id="Z4ZGMX_Dos0MWvp86Li_-18" value="" style="ellipse;whiteSpace=wrap;html=1;aspect=fixed;" parent="Z4ZGMX_Dos0MWvp86Li_-15" vertex="1">
          <mxGeometry x="70" y="30" width="20" height="20" as="geometry" />
        </mxCell>
        <mxCell id="Z4ZGMX_Dos0MWvp86Li_-19" value="" style="endArrow=none;html=1;rounded=0;" parent="Z4ZGMX_Dos0MWvp86Li_-15" edge="1">
          <mxGeometry width="50" height="50" relative="1" as="geometry">
            <mxPoint x="40" y="39.5" as="sourcePoint" />
            <mxPoint x="120" y="39.5" as="targetPoint" />
          </mxGeometry>
        </mxCell>
        <mxCell id="Z4ZGMX_Dos0MWvp86Li_-20" value="" style="rounded=0;whiteSpace=wrap;html=1;" parent="Z4ZGMX_Dos0MWvp86Li_-15" vertex="1">
          <mxGeometry x="10" y="10" width="10" height="60" as="geometry" />
        </mxCell>
        <mxCell id="Z4ZGMX_Dos0MWvp86Li_-21" value="" style="rounded=0;whiteSpace=wrap;html=1;" parent="Z4ZGMX_Dos0MWvp86Li_-15" vertex="1">
          <mxGeometry x="10" y="10" width="60" height="10" as="geometry" />
        </mxCell>
        <mxCell id="Z4ZGMX_Dos0MWvp86Li_-22" value="" style="rounded=0;whiteSpace=wrap;html=1;" parent="Z4ZGMX_Dos0MWvp86Li_-15" vertex="1">
          <mxGeometry x="60" y="10" width="10" height="60" as="geometry" />
        </mxCell>
        <mxCell id="Z4ZGMX_Dos0MWvp86Li_-23" value="" style="rounded=0;whiteSpace=wrap;html=1;" parent="Z4ZGMX_Dos0MWvp86Li_-15" vertex="1">
          <mxGeometry x="90" y="10" width="10" height="60" as="geometry" />
        </mxCell>
        <mxCell id="Z4ZGMX_Dos0MWvp86Li_-24" value="" style="rounded=0;whiteSpace=wrap;html=1;" parent="Z4ZGMX_Dos0MWvp86Li_-15" vertex="1">
          <mxGeometry x="90" y="10" width="60" height="10" as="geometry" />
        </mxCell>
        <mxCell id="Z4ZGMX_Dos0MWvp86Li_-25" value="" style="rounded=0;whiteSpace=wrap;html=1;" parent="Z4ZGMX_Dos0MWvp86Li_-15" vertex="1">
          <mxGeometry x="140" y="10" width="10" height="60" as="geometry" />
        </mxCell>
        <mxCell id="Z4ZGMX_Dos0MWvp86Li_-26" value="" style="rounded=0;whiteSpace=wrap;html=1;fillColor=#EA6B66;" parent="Z4ZGMX_Dos0MWvp86Li_-15" vertex="1">
          <mxGeometry x="75" y="35" width="10" height="10" as="geometry" />
        </mxCell>
        <mxCell id="Z4ZGMX_Dos0MWvp86Li_-27" value="" style="rounded=0;whiteSpace=wrap;html=1;" parent="Z4ZGMX_Dos0MWvp86Li_-15" vertex="1">
          <mxGeometry x="10" y="60" width="60" height="10" as="geometry" />
        </mxCell>
        <mxCell id="Z4ZGMX_Dos0MWvp86Li_-28" value="" style="rounded=0;whiteSpace=wrap;html=1;" parent="Z4ZGMX_Dos0MWvp86Li_-15" vertex="1">
          <mxGeometry x="90" y="60" width="60" height="10" as="geometry" />
        </mxCell>
        <mxCell id="Z4ZGMX_Dos0MWvp86Li_-29" value="" style="rounded=0;whiteSpace=wrap;html=1;fillColor=#FFD966;" parent="1" vertex="1">
          <mxGeometry x="695" y="50" width="40" height="40" as="geometry" />
        </mxCell>
        <mxCell id="Z4ZGMX_Dos0MWvp86Li_-30" value="" style="rounded=0;whiteSpace=wrap;html=1;fillColor=#FFD966;" parent="1" vertex="1">
          <mxGeometry x="650" y="95" width="40" height="40" as="geometry" />
        </mxCell>
      </root>
    </mxGraphModel>
  </diagram>
</mxfile>
